HIERARCHY
ROOT hip
{
  OFFSET 0 0 0
  CHANNELS 6 Xposition Yposition Zposition Zrotation Yrotation Xrotation
  JOINT abdomen
  {
    OFFSET 0 20.6881 -0.73152
    CHANNELS 3 Zrotation Xrotation Yrotation
    JOINT chest
    {
      OFFSET 0 11.7043 -0.48768
      CHANNELS 3 Zrotation Xrotation Yrotation
      JOINT neck
      {
        OFFSET 0 22.1894 -2.19456
        CHANNELS 3 Zrotation Xrotation Yrotation
        JOINT head
        {
          OFFSET -0.24384 7.07133 1.2192
          CHANNELS 3 Zrotation Xrotation Yrotation
          JOINT leftEye
          {
            OFFSET 4.14528 8.04674 8.04672
            CHANNELS 3 Zrotation Xrotation Yrotation
            End Site
            {
              OFFSET 1 0 0
            }
          }
          JOINT rightEye
          {
            OFFSET -3.6576 8.04674 8.04672
            CHANNELS 3 Zrotation Xrotation Yrotation
            End Site
            {
              OFFSET 1 0 0
            }
          }
        }
      }
      JOINT rCollar
      {
        OFFSET -2.68224 19.2634 -4.8768
        CHANNELS 3 Zrotation Xrotation Yrotation
        JOINT rShldr
        {
          OFFSET -8.77824 -1.95073 1.46304
          CHANNELS 3 Zrotation Xrotation Yrotation
          JOINT rForeArm
          {
            OFFSET -28.1742 -1.7115 0.48768
            CHANNELS 3 Zrotation Xrotation Yrotation
            JOINT rHand
            {
              OFFSET -22.5879 0.773209 7.07136
              CHANNELS 3 Zrotation Xrotation Yrotation
              JOINT rThumb1
              {
                OFFSET -1.2192 -0.487915 3.41376
                CHANNELS 3 Zrotation Xrotation Yrotation
                JOINT rThumb2
                {
                  OFFSET -3.37035 -0.52449 3.41376
                  CHANNELS 3 Zrotation Xrotation Yrotation
                  End Site
                  {
                    OFFSET -1.78271 -1.18214 1.43049
                  }
                }
              }
              JOINT rIndex1
              {
                OFFSET -7.75947 0.938293 5.60832
                CHANNELS 3 Zrotation Xrotation Yrotation
                JOINT rIndex2
                {
                  OFFSET -2.54057 -0.884171 1.56538
                  CHANNELS 3 Zrotation Xrotation Yrotation
                  End Site
                  {
                    OFFSET -1.62519 -0.234802 1.16502
                  }
                }
              }
              JOINT rMid1
              {
                OFFSET -8.24714 1.18213 3.41376
                CHANNELS 3 Zrotation Xrotation Yrotation
                JOINT rMid2
                {
                  OFFSET -3.10165 -0.590103 1.0647
                  CHANNELS 3 Zrotation Xrotation Yrotation
                  End Site
                  {
                    OFFSET -2.48547 -0.328903 0.83742
                  }
                }
              }
              JOINT rRing1
              {
                OFFSET -8.82822 0.546677 1.51678
                CHANNELS 3 Zrotation Xrotation Yrotation
                JOINT rRing2
                {
                  OFFSET -2.60934 -0.819778 -0.0198488
                  CHANNELS 3 Zrotation Xrotation Yrotation
                  End Site
                  {
                    OFFSET -2.33842 -0.294052 0.168128
                  }
                }
              }
              JOINT rPinky1
              {
                OFFSET -8.27202 -0.0477905 -0.4584
                CHANNELS 3 Zrotation Xrotation Yrotation
                JOINT rPinky2
                {
                  OFFSET -1.82734 -0.647385 -0.700984
                  CHANNELS 3 Zrotation Xrotation Yrotation
                  End Site
                  {
                    OFFSET -1.69225 -0.51767 -0.607171
                  }
                }
              }
            }
          }
        }
      }
      JOINT lCollar
      {
        OFFSET 2.68224 19.2634 -4.8768
        CHANNELS 3 Zrotation Xrotation Yrotation
        JOINT lShldr
        {
          OFFSET 8.77824 -1.95073 1.46304
          CHANNELS 3 Zrotation Xrotation Yrotation
          JOINT lForeArm
          {
            OFFSET 28.1742 -1.7115 0.48768
            CHANNELS 3 Zrotation Xrotation Yrotation
            JOINT lHand
            {
              OFFSET 22.5879 0.773209 7.07136
              CHANNELS 3 Zrotation Xrotation Yrotation
              JOINT lThumb1
              {
                OFFSET 1.2192 -0.487915 3.41376
                CHANNELS 3 Zrotation Xrotation Yrotation
                JOINT lThumb2
                {
                  OFFSET 3.37035 -0.52449 3.41376
                  CHANNELS 3 Zrotation Xrotation Yrotation
                  End Site
                  {
                    OFFSET 1.78271 -1.18214 1.43049
                  }
                }
              }
              JOINT lIndex1
              {
                OFFSET 7.75947 0.938293 5.60832
                CHANNELS 3 Zrotation Xrotation Yrotation
                JOINT lIndex2
                {
                  OFFSET 2.54057 -0.884171 1.56538
                  CHANNELS 3 Zrotation Xrotation Yrotation
                  End Site
                  {
                    OFFSET 1.62519 -0.234802 1.16502
                  }
                }
              }
              JOINT lMid1
              {
                OFFSET 8.24714 1.18213 3.41376
                CHANNELS 3 Zrotation Xrotation Yrotation
                JOINT lMid2
                {
                  OFFSET 3.10165 -0.590103 1.0647
                  CHANNELS 3 Zrotation Xrotation Yrotation
                  End Site
                  {
                    OFFSET 2.48547 -0.328903 0.83742
                  }
                }
              }
              JOINT lRing1
              {
                OFFSET 8.82822 0.546677 1.51678
                CHANNELS 3 Zrotation Xrotation Yrotation
                JOINT lRing2
                {
                  OFFSET 2.60934 -0.819778 -0.0198488
                  CHANNELS 3 Zrotation Xrotation Yrotation
                  End Site
                  {
                    OFFSET 2.33842 -0.294052 0.168128
                  }
                }
              }
              JOINT lPinky1
              {
                OFFSET 8.27202 -0.0477905 -0.4584
                CHANNELS 3 Zrotation Xrotation Yrotation
                JOINT lPinky2
                {
                  OFFSET 1.82734 -0.647385 -0.700984
                  CHANNELS 3 Zrotation Xrotation Yrotation
                  End Site
                  {
                    OFFSET 1.69225 -0.51767 -0.607171
                  }
                }
              }
            }
          }
        }
      }
    }
  }
  JOINT rButtock
  {
    OFFSET -8.77824 4.35084 1.2192
    CHANNELS 3 Zrotation Xrotation Yrotation
    JOINT rThigh
    {
      OFFSET 0 -1.70687 -2.19456
      CHANNELS 3 Zrotation Xrotation Yrotation
      JOINT rShin
      {
        OFFSET 0 -36.8199 0.73152
        CHANNELS 3 Zrotation Xrotation Yrotation
        JOINT rFoot
        {
          OFFSET 0.73152 -45.1104 -5.12064
          CHANNELS 3 Zrotation Xrotation Yrotation
          End Site
          {
            OFFSET -1.1221 -3.69964 12.103
          }
        }
      }
    }
  }
  JOINT lButtock
  {
    OFFSET 8.77824 4.35084 1.2192
    CHANNELS 3 Zrotation Xrotation Yrotation
    JOINT lThigh
    {
      OFFSET 0 -1.70687 -2.19456
      CHANNELS 3 Zrotation Xrotation Yrotation
      JOINT lShin
      {
        OFFSET 0 -36.8199 0.73152
        CHANNELS 3 Zrotation Xrotation Yrotation
        JOINT lFoot
        {
          OFFSET -0.73152 -45.1104 -5.12064
          CHANNELS 3 Zrotation Xrotation Yrotation
          End Site
          {
            OFFSET 1.1221 -3.69964 12.103
          }
        }
      }
    }
  }
}
MOTION
Frames:	4
Frame Time:	0.03333
0.013579552993178368 -0.315574586391449 0.07132728397846222 -19.093565046787262 -2.6797517761588097 3.029363974928856 -1.893218457698822 13.33471342921257 4.1443173587322235 2.1457789465785027 -9.310974776744843 1.3095577899366617 -4.557248465716839 14.37781110405922 -3.2658446207642555 8.395970687270164 -23.181774616241455 -4.956411458551884 0.0817684200592339 0.32932715490460396 -0.1053080940619111 -0.04677091492339969 0.1531333476305008 0.004129229346290231 -0.0518305879086256 -0.020091526675969362 0.04661532584577799 43.23977887630463 27.22964107990265 12.092990130186081 -23.257013261318207 -27.03531503677368 60.49619436264038 -4.001452848315239 -10.268361791968346 -3.58260914683342 0.063414357136935 -0.020415654871612787 0.407966673374176 0.06700130878016353 0.02591749420389533 -0.06947474554181099 -0.04884653084445745 0.035452747251838446 0.07404321804642677 7.657702714204788 5.277063176035881 0.3939679730683565 -0.03160840831696987 -0.007993066683411598 0.20386008080095053 2.8592676669359207 1.0491489060223103 -0.04163228441029787 -0.3249782882630825 0.15039833262562752 -0.04962199833244085 10.124044865369797 0.6461358955129981 -0.1396378129720688 -0.12768622487783432 0.23936837911605835 -0.027923849411308765 2.1460753306746483 -0.7894099876284599 -0.5357399024069309 -0.13796629384160042 0.15465084929019213 -0.051003865082748234 -51.513776779174805 27.99100488424301 -23.96108239889145 21.73706978559494 -24.056311547756195 -56.36929392814636 4.808654598891735 -11.92080706357956 3.359661251306534 -0.10930364252999425 -0.048771643778309226 -0.04886467242613435 0.06153159309178591 -0.011513633653521538 -0.4178878292441368 -0.2790656592696905 0.12067371513694525 0.08591922232881188 -7.6201605051755905 5.36119669675827 -0.40265707299113274 -0.10058450396172702 0.1712045632302761 -0.03412704449146986 -2.8788011893630028 0.8958321623504162 -0.18761331215500832 -0.5951788276433945 0.09675318840891123 0.06237013963982463 -10.283388197422028 0.8959237765520811 -0.09338395670056343 -0.0919335731305182 -0.07946688565425575 0.06810120306909084 -2.2212071903049946 -0.6899264361709356 0.2794295805506408 0.06922563014086336 -0.008350842326763086 -0.13201170600950718 -30.66586196422577 -30.351308584213257 -25.274353623390198 -19.023103415966034 56.80959463119507 20.89403137564659 -4.799002334475517 -10.321515798568726 -9.834953024983406 -0.2113430667668581 -0.08027683943510056 -0.051371699664741755 35.823819637298584 -31.492727994918823 28.465463519096375 20.537762939929962 57.74109363555908 -18.46585437655449 4.719910025596619 -9.825679287314415 12.053093612194061
0.011360816657543182 -0.9839223623275757 0.19360081106424332 -21.790495365858078 -0.8506250381469727 5.662438273429871 -2.697060741484165 14.20057475566864 4.749714061617851 2.448316030204296 -9.679647758603096 1.6110296174883842 -4.748479574918747 15.187363475561142 -3.3112172037363052 8.55036199092865 -24.927774667739868 -4.858059212565422 0.02424654085189104 -0.03036562353372574 -0.08901602122932673 0.020423827227205038 0.0402490608394146 -0.07552011986263096 0.12149644084274769 0.11024421779438853 -0.18720532301813364 49.897059202194214 31.56299650669098 14.328242540359497 -24.34978276491165 -30.60994327068329 68.13289403915405 -5.094085559248924 -14.04789000749588 -4.516688100993633 -0.00941363163292408 -0.06045822752639651 0.06519192829728127 0.038137827068567276 0.03498775069601834 0.009814747609198093 -0.10192566085606813 0.056902351789176464 -0.1312712486833334 7.5788068771362305 5.247712433338165 0.37545050494372845 -0.04491418716497719 0.05287220701575279 0.11062993202358484 2.903425879776478 0.938142416998744 0.09382023476064205 0.1431059092283249 -0.00969727523624897 0.011055730283260345 10.313296839594841 0.6263836473226547 0.013577090576291084 0.12981204316020012 0.13735097832977772 0.04425309598445892 2.232138868421316 -0.7881516963243484 -0.25793949142098427 -0.13320352882146835 0.041106739081442356 -0.11614654446020722 -60.046119689941406 32.049747705459595 -24.109191298484802 23.09428095817566 -27.722427248954773 -62.625203132629395 5.919734537601471 -11.425132155418396 3.4627683833241463 0.03711783327162266 -0.06219361675903201 -0.02635018900036812 -0.03025862853974104 0.1653519831597805 -0.2330260444432497 -0.07746420800685883 0.13023084495216608 0.05795641802251339 -7.5595613569021225 5.38238313049078 -0.39701429195702076 -0.12898605898953974 0.20201425999403 0.10436542332172394 -2.770320251584053 0.8441503532230854 -0.09045121259987354 0.2911561354994774 0.06721372716128826 0.03451236058026552 -10.350305289030075 0.7478898949921131 -0.0617643166333437 -0.014155232347548008 -0.06798069225624204 -0.03368351608514786 -2.079695351421833 -0.676635755226016 0.24850689573213458 0.14440949424169958 -0.0356793703394942 0.0670832209289074 -34.286227226257324 -33.540605306625366 -29.941295385360718 -21.633633077144623 62.91192054748535 21.7766135931015 -4.869808629155159 -10.623824223876 -10.73905661702156 -0.04343862645328045 0.05462029483169317 -0.2185541857033968 42.14721322059631 -33.700038492679596 35.188219249248505 21.893497556447983 63.44204306602478 -21.883322596549988 4.584683775901794 -10.579848065972328 13.472025096416473
0.11090297251939774 -3.433671236038208 1.651387371122837 17.716045528650284 -0.1801760494709015 21.87490314245224 -3.6781853064894676 15.573522448539734 5.441136918962002 3.406161367893219 -8.90381008386612 2.4512662924826145 -5.720044746994972 15.125252902507782 -5.027163438498974 11.153645664453506 -25.84645003080368 -8.640981763601303 0.14576892368495464 0.12282773852348328 -0.03454295452684164 0.38396316580474377 0.4262252664193511 -0.3119259886443615 0.2899463754147291 0.4224422201514244 -0.5400690296664834 43.18605959415436 23.778786063194275 23.76927226781845 -24.585342407226562 -27.306110858917236 59.38790023326874 -2.0729256235063076 -0.21491824183613062 1.2816345691680908 0.11163632618263364 -0.4702885542064905 0.40025850757956505 0.25704742642119527 0.32801014836877584 -0.2090059407055378 0.14278190676122904 0.29083207016810775 -0.08789439685642719 7.6458292454481125 5.042316243052483 0.32373881433159113 0.43543752282857895 0.23029107134789228 0.6618874194100499 3.0029747262597084 0.9186431765556335 -0.06505429744720459 0.5819578841328621 0.11004831176251173 0.3836792288348079 10.796849504113197 0.49548744689673185 -0.21622347179800272 0.272300373762846 0.5849109962582588 0.3154500760138035 2.687331698834896 -1.0208590608090162 -0.7838308252394199 -0.49137105233967304 0.5606830213218927 0.008483643759973347 -60.23877739906311 37.120946645736694 -19.866165965795517 25.21390736103058 -28.2253360748291 -63.327587842941284 2.5678875669837 -16.11140727996826 2.7974569983780384 0.007806485518813133 -0.4830109840258956 0.03717567888088524 0.10497876908630133 0.2888730727136135 -0.627228794619441 -0.23507039062678814 0.4141631629317999 0.11719937436282635 -7.388949394226074 5.317720100283623 -0.10167303029447794 -0.255251897033304 0.9580392949283123 -0.059560840018093586 -2.742343470454216 0.490068756043911 0.15824207570403814 0.16491159796714783 0.08420313242822886 0.013013994321227074 -11.042460054159164 0.6313822790980339 -0.02046911045908928 0.05952454637736082 0.20369374193251133 -0.06637511774897575 -1.8273874931037426 -0.5804229062050581 0.3423685161396861 0.4461213480681181 0.18136711791157722 -0.2180540794506669 -27.427550554275513 -32.72834658622742 -24.539648294448853 -17.55699723958969 55.28077304363251 11.364905834197998 -5.330916903913021 -4.774504713714123 -13.491201549768448 -0.07136976812034845 -0.14111269265413284 0.07546068169176579 33.11484754085541 -32.18635529279709 23.441323935985565 13.351534903049469 59.34912085533142 -9.705828800797462 4.899634458124638 -6.700740829110146 17.025866210460663
0.13582991249859333 -5.889797687530518 3.211394466459751 21.91169634461403 7.485840171575546 36.23011529445648 -4.979844242334366 17.012616097927094 9.220892786979675 1.7076196521520615 -8.874409049749374 3.3230558037757874 -6.713468581438065 16.074608713388443 -3.6476577445864677 8.969432339072227 -30.89676260948181 -5.857016444206238 0.09656436508521438 0.5402880907058716 0.0345655856654048 1.3495650328695774 0.7026344072073698 -0.08502821554429829 0.505055682733655 0.85163539275527 -1.0996867530047894 39.419288635253906 28.866512775421143 33.601156175136566 -27.637685537338257 -31.12375795841217 70.98583102226257 0.7350055687129498 7.290765792131424 6.43805667757988 0.09737933753058314 -0.7183058839291334 0.1425107941031456 0.014576611574739218 0.367025644518435 -0.43173351790755987 0.6720210565254092 0.406808964908123 -0.462974002584815 7.985423058271408 5.0258005410432816 0.1963550504297018 0.5828548315912485 0.35692444536834955 1.1370034888386726 3.8272594660520554 0.885920561850071 -0.016391901299357414 0.4074340872466564 0.6419039145112038 0.7407215237617493 11.160325706005096 0.3947706241160631 0.14361267909407616 0.7133135385811329 0.8879061508923769 1.3302350230515003 2.9519695043563843 -0.7932297885417938 -1.4099217765033245 -0.4684016201645136 1.6929975897073746 0.1809419458732009 -70.321324467659 39.155176877975464 -8.312222063541412 28.918080925941467 -35.526920557022095 -79.166579246521 4.428553394973278 -34.17273223400116 5.253778249025345 -0.6056467350572348 -0.7147372886538506 -0.4282831074669957 -0.35668870434165 1.1824910715222359 -0.644708164036274 -0.12131061404943466 0.6296483147889376 -0.17114140558987856 -6.904090493917465 4.807428829371929 -0.11995634995400906 -0.9321905113756657 0.7883881498128176 -0.6092475168406963 -3.1267496198415756 0.6874778307974339 0.40571718011051416 -0.3163638710975647 -0.1275500189512968 0.5773976678028703 -11.458952128887177 0.4585233796387911 -0.1686540339142084 0.287037561647594 0.3336802963167429 -0.32725632190704346 -0.9562167339026928 -0.7238104473799467 0.2138176979497075 0.5970418732613325 0.30355682596564293 -0.787245612591505 -25.070360898971558 -41.29887878894806 -19.32321846485138 -27.917118072509766 61.99814558029175 30.918732583522797 -7.271067649126053 -3.8014472275972366 -16.721410006284714 0.528469942510128 -0.07009861059486866 0.015615778975188732 29.922836422920227 -39.299726486206055 20.051212906837463 24.1326043009758 63.170013427734375 -18.365062326192856 4.5469920337200165 -7.40397110581398 17.199056446552277
